Muli-600.ufo
<glyph name="quotedbl" format="1">
  <advance width="751.31"/>
  <unicode hex="0022"/>
  <outline>
    <contour>
      <point x="154.11" y="959.86" type="line"/>
      <point x="106.52" y="1456.0" type="line"/>
      <point x="321.33" y="1456.0" type="line"/>
      <point x="281.15" y="959.86" type="line"/>
    </contour>
    <contour>
      <point x="478.33" y="959.86" type="line"/>
      <point x="430.74" y="1456.0" type="line"/>
      <point x="645.55" y="1456.0" type="line"/>
      <point x="605.37" y="959.86" type="line"/>
    </contour>
  </outline>
</glyph>
<glyph name="ampersand" format="1">
  <advance width="1559.33"/>
  <unicode hex="0026"/>
  <outline>
    <contour>
      <point x="628.31" y="-25.45" type="curve" smooth="yes"/>
      <point x="341.79" y="-25.45"/>
      <point x="122.2" y="138.07"/>
      <point x="122.2" y="415.97" type="curve" smooth="yes"/>
      <point x="122.2" y="633.45"/>
      <point x="274.54" y="749.66"/>
      <point x="444.16" y="850.28" type="curve"/>
      <point x="350.16" y="954.28"/>
      <point x="285.75" y="1041.79"/>
      <point x="285.75" y="1168.37" type="curve" smooth="yes"/>
      <point x="285.75" y="1370.03"/>
      <point x="442.1" y="1473.17"/>
      <point x="631.07" y="1473.17" type="curve" smooth="yes"/>
      <point x="810.8" y="1473.17"/>
      <point x="990.46" y="1379.03"/>
      <point x="990.46" y="1175.06" type="curve" smooth="yes"/>
      <point x="990.46" y="1022.27"/>
      <point x="866.95" y="899.17"/>
      <point x="727.85" y="812.48" type="curve"/>
      <point x="1059.24" y="449.92" type="line"/>
      <point x="1135.72" y="583.44"/>
      <point x="1175.16" y="753.05"/>
      <point x="1175.16" y="921.43" type="curve"/>
      <point x="1371.7" y="883.87" type="line"/>
      <point x="1369.22" y="678.8"/>
      <point x="1303.22" y="455.35"/>
      <point x="1196.98" y="297.97" type="curve"/>
      <point x="1276.93" y="214.88"/>
      <point x="1390.41" y="145.32"/>
      <point x="1510.29" y="112.39" type="curve"/>
      <point x="1369.62" y="-13.9" type="line"/>
      <point x="1242.51" y="6.86"/>
      <point x="1153.71" y="82.59"/>
      <point x="1074.31" y="165.51" type="curve"/>
      <point x="967.31" y="58.55"/>
      <point x="820.41" y="-25.45"/>
    </contour>
    <contour>
      <point x="628.07" y="159.64" type="curve" smooth="yes"/>
      <point x="770.68" y="159.64"/>
      <point x="865.85" y="220.81"/>
      <point x="948.19" y="302.25" type="curve"/>
      <point x="563.83" y="715.16" type="line"/>
      <point x="442.7" y="646.75"/>
      <point x="338.05" y="567.89"/>
      <point x="338.05" y="417.28" type="curve" smooth="yes"/>
      <point x="338.05" y="267.53"/>
      <point x="458.15" y="159.64"/>
    </contour>
    <contour>
      <point x="602.8" y="938.05" type="curve"/>
      <point x="697.0" y="996.84"/>
      <point x="784.09" y="1071.76"/>
      <point x="784.09" y="1165.06" type="curve" smooth="yes"/>
      <point x="784.09" y="1263.12"/>
      <point x="706.65" y="1298.77"/>
      <point x="639.83" y="1298.77" type="curve" smooth="yes"/>
      <point x="557.7" y="1298.77"/>
      <point x="493.88" y="1255.81"/>
      <point x="493.88" y="1163.68" type="curve" smooth="yes"/>
      <point x="493.88" y="1079.93"/>
      <point x="533.6" y="1007.63"/>
    </contour>
  </outline>
</glyph>
<glyph name="hyphen" format="1">
  <advance width="707.3"/>
  <unicode hex="002D"/>
  <outline>
    <contour>
      <point x="58.48" y="472.92" type="line"/>
      <point x="58.48" y="638.42" type="line"/>
      <point x="648.82" y="638.42" type="line"/>
      <point x="648.82" y="472.92" type="line"/>
    </contour>
  </outline>
</glyph>
<glyph name="period" format="1">
  <advance width="541.55"/>
  <unicode hex="002E"/>
  <outline>
    <contour>
      <point x="132.95" y="0.0" type="line"/>
      <point x="132.95" y="245.88" type="line"/>
      <point x="392.73" y="245.88" type="line"/>
      <point x="392.73" y="0.0" type="line"/>
    </contour>
  </outline>
</glyph>
<glyph name="slash" format="1">
  <advance width="902.67"/>
  <unicode hex="002F"/>
  <outline>
    <contour>
      <point x="66.9" y="-135.21" type="line"/>
      <point x="654.28" y="1456.0" type="line"/>
      <point x="852.33" y="1456.0" type="line"/>
      <point x="260.26" y="-135.21" type="line"/>
    </contour>
  </outline>
</glyph>
<glyph name="four" format="1">
  <advance width="1249.74"/>
  <unicode hex="0034"/>
  <outline>
    <contour>
      <point x="736.89" y="0.0" type="line"/>
      <point x="736.89" y="383.55" type="line"/>
      <point x="106.07" y="383.55" type="line"/>
      <point x="106.07" y="546.7" type="line"/>
      <point x="692.76" y="1456.0" type="line"/>
      <point x="954.43" y="1456.0" type="line"/>
      <point x="954.43" y="552.81" type="line"/>
      <point x="1177.4" y="552.81" type="line"/>
      <point x="1177.4" y="383.55" type="line"/>
      <point x="957.19" y="383.55" type="line"/>
      <point x="957.19" y="0.0" type="line"/>
    </contour>
    <contour>
      <point x="342.79" y="552.81" type="line"/>
      <point x="738.96" y="552.81" type="line"/>
      <point x="738.96" y="1203.75" type="line"/>
      <point x="648.22" y="1053.85" type="line"/>
    </contour>
  </outline>
</glyph>
<glyph name="seven" format="1">
  <advance width="1249.74"/>
  <unicode hex="0037"/>
  <outline>
    <contour>
      <point x="333.47" y="0.0" type="line"/>
      <point x="872.92" y="1273.74" type="line"/>
      <point x="157.51" y="1273.74" type="line"/>
      <point x="157.51" y="1456.0" type="line"/>
      <point x="1124.95" y="1456.0" type="line"/>
      <point x="1124.95" y="1289.67" type="line"/>
      <point x="569.84" y="0.0" type="line"/>
    </contour>
  </outline>
</glyph>
<glyph name="nine" format="1">
  <advance width="1250.36"/>
  <unicode hex="0039"/>
  <outline>
    <contour>
      <point x="557.52" y="-24.69" type="curve" smooth="yes"/>
      <point x="444.73" y="-24.69"/>
      <point x="325.55" y="4.52"/>
      <point x="191.96" y="71.9" type="curve"/>
      <point x="266.18" y="248.06" type="line"/>
      <point x="360.24" y="191.82"/>
      <point x="451.76" y="166.09"/>
      <point x="540.38" y="166.09" type="curve" smooth="yes"/>
      <point x="735.64" y="166.09"/>
      <point x="884.06" y="313.52"/>
      <point x="884.06" y="640.44" type="curve" smooth="yes"/>
      <point x="884.06" y="682.67" type="line"/>
      <point x="817.61" y="570.33"/>
      <point x="702.85" y="528.13"/>
      <point x="573.97" y="528.13" type="curve" smooth="yes"/>
      <point x="293.76" y="528.13"/>
      <point x="121.58" y="720.51"/>
      <point x="121.58" y="996.41" type="curve" smooth="yes"/>
      <point x="121.58" y="1272.24"/>
      <point x="305.38" y="1483.0"/>
      <point x="607.59" y="1483.0" type="curve" smooth="yes"/>
      <point x="929.66" y="1483.0"/>
      <point x="1103.36" y="1237.21"/>
      <point x="1103.36" y="771.93" type="curve" smooth="yes"/>
      <point x="1103.36" y="263.03"/>
      <point x="891.16" y="-24.69"/>
    </contour>
    <contour>
      <point x="343.57" y="1001.72" type="curve" smooth="yes"/>
      <point x="343.57" y="837.35"/>
      <point x="420.57" y="711.15"/>
      <point x="599.28" y="711.15" type="curve" smooth="yes"/>
      <point x="760.41" y="711.15"/>
      <point x="876.2" y="814.73"/>
      <point x="876.2" y="1005.49" type="curve" smooth="yes"/>
      <point x="876.2" y="1156.34"/>
      <point x="784.89" y="1293.98"/>
      <point x="610.63" y="1293.98" type="curve" smooth="yes"/>
      <point x="444.5" y="1293.98"/>
      <point x="343.57" y="1172.54"/>
    </contour>
  </outline>
</glyph>
<glyph name="less" format="1">
  <advance width="1328.89"/>
  <unicode hex="003C"/>
  <outline>
    <contour>
      <point x="1110.58" y="53.16" type="line"/>
      <point x="124.5" y="522.68" type="line"/>
      <point x="124.5" y="626.86" type="line"/>
      <point x="1114.89" y="1091.81" type="line"/>
      <point x="1114.89" y="894.34" type="line"/>
      <point x="400.71" y="574.41" type="line"/>
      <point x="1110.58" y="247.25" type="line"/>
    </contour>
  </outline>
</glyph>
<glyph name="equal" format="1">
  <advance width="1376.66"/>
  <unicode hex="003D"/>
  <outline>
    <contour>
      <point x="192.19" y="278.16" type="line"/>
      <point x="192.19" y="452.42" type="line"/>
      <point x="1184.78" y="452.42" type="line"/>
      <point x="1184.78" y="278.16" type="line"/>
    </contour>
    <contour>
      <point x="191.88" y="675.89" type="line"/>
      <point x="191.88" y="851.15" type="line"/>
      <point x="1183.09" y="851.15" type="line"/>
      <point x="1183.09" y="675.89" type="line"/>
    </contour>
  </outline>
</glyph>
<glyph name="question" format="1">
  <advance width="1040.26"/>
  <unicode hex="003F"/>
  <outline>
    <contour>
      <point x="328.09" y="393.53" type="line"/>
      <point x="328.09" y="533.39" type="line" smooth="yes"/>
      <point x="328.09" y="787.43"/>
      <point x="692.08" y="905.7"/>
      <point x="692.08" y="1120.17" type="curve" smooth="yes"/>
      <point x="692.08" y="1247.02"/>
      <point x="590.33" y="1295.98"/>
      <point x="463.34" y="1295.98" type="curve" smooth="yes"/>
      <point x="343.79" y="1295.98"/>
      <point x="217.37" y="1249.74"/>
      <point x="168.68" y="1225.81" type="curve"/>
      <point x="168.68" y="1412.07" type="line"/>
      <point x="216.07" y="1435.61"/>
      <point x="337.24" y="1482.14"/>
      <point x="485.41" y="1482.14" type="curve" smooth="yes"/>
      <point x="722.13" y="1482.14"/>
      <point x="913.52" y="1366.07"/>
      <point x="913.52" y="1127.48" type="curve" smooth="yes"/>
      <point x="913.52" y="826.654387146"/>
      <point x="500.11" y="733.6"/>
      <point x="500.11" y="476.62" type="curve" smooth="yes"/>
      <point x="500.11" y="393.53" type="line"/>
    </contour>
    <contour>
      <point x="293.78" y="-3.41" type="line"/>
      <point x="293.78" y="242.47" type="line"/>
      <point x="553.56" y="242.47" type="line"/>
      <point x="553.56" y="-3.41" type="line"/>
    </contour>
  </outline>
</glyph>
<glyph name="at" format="1">
  <advance width="1788.88"/>
  <unicode hex="0040"/>
  <outline>
    <contour>
      <point x="933.8" y="-94.04" type="curve" smooth="yes"/>
      <point x="1145.52" y="-94.04"/>
      <point x="1361.89" y="-33.25"/>
      <point x="1508.73" y="92.88" type="curve"/>
      <point x="1433.45" y="191.17" type="line"/>
      <point x="1292.2" y="92.11"/>
      <point x="1113.66" y="44.25"/>
      <point x="947.77" y="44.25" type="curve" smooth="yes"/>
      <point x="602.68" y="44.25"/>
      <point x="284.26" y="252.17"/>
      <point x="284.26" y="673.27" type="curve" smooth="yes"/>
      <point x="284.26" y="1111.14"/>
      <point x="591.67" y="1337.78"/>
      <point x="953.74" y="1337.78" type="curve" smooth="yes"/>
      <point x="1260.79" y="1337.78"/>
      <point x="1537.11" y="1149.7"/>
      <point x="1537.11" y="800.55" type="curve" smooth="yes"/>
      <point x="1537.11" y="553.68"/>
      <point x="1397.0" y="368.11"/>
      <point x="1293.33" y="368.11" type="curve" smooth="yes"/>
      <point x="1245.99" y="368.11"/>
      <point x="1227.75" y="415.22"/>
      <point x="1227.75" y="454.56" type="curve" smooth="yes"/>
      <point x="1227.75" y="495.62"/>
      <point x="1233.09" y="537.03"/>
      <point x="1249.99" y="621.74" type="curve" smooth="yes"/>
      <point x="1349.5" y="1115.45" type="line"/>
      <point x="1165.51" y="1115.45" type="line"/>
      <point x="1142.65" y="1011.18" type="line"/>
      <point x="1113.51" y="1102.0"/>
      <point x="1031.52" y="1138.86"/>
      <point x="930.69" y="1138.86" type="curve" smooth="yes"/>
      <point x="727.01" y="1138.86"/>
      <point x="485.34" y="922.22"/>
      <point x="481.0" y="624.31" type="curve" smooth="yes"/>
      <point x="477.28" y="383.27"/>
      <point x="651.01" y="261.72"/>
      <point x="807.08" y="261.72" type="curve" smooth="yes"/>
      <point x="953.3" y="261.72"/>
      <point x="1057.43" y="351.31"/>
      <point x="1097.84" y="460.52" type="curve"/>
      <point x="1097.84" y="334.29"/>
      <point x="1171.33" y="253.69"/>
      <point x="1307.99" y="253.69" type="curve" smooth="yes"/>
      <point x="1508.96" y="253.69"/>
      <point x="1682.26" y="518.43"/>
      <point x="1682.26" y="795.55" type="curve" smooth="yes"/>
      <point x="1682.26" y="1197.45"/>
      <point x="1361.81" y="1480.76"/>
      <point x="948.84" y="1480.76" type="curve" smooth="yes"/>
      <point x="494.0" y="1480.76"/>
      <point x="106.62" y="1174.38"/>
      <point x="106.62" y="673.89" type="curve" smooth="yes"/>
      <point x="106.62" y="200.34"/>
      <point x="467.0" y="-94.04"/>
    </contour>
    <contour>
      <point x="832.19" y="426.36" type="curve" smooth="yes"/>
      <point x="745.44" y="426.36"/>
      <point x="685.72" y="493.25"/>
      <point x="685.72" y="592.69" type="curve" smooth="yes"/>
      <point x="685.72" y="766.82"/>
      <point x="791.91" y="984.39"/>
      <point x="952.11" y="984.39" type="curve" smooth="yes"/>
      <point x="1038.72" y="984.39"/>
      <point x="1092.27" y="920.3"/>
      <point x="1092.27" y="821.79" type="curve" smooth="yes"/>
      <point x="1092.27" y="622.66"/>
      <point x="979.39" y="426.36"/>
    </contour>
  </outline>
</glyph>
<glyph name="C" format="1">
  <advance width="1410.81"/>
  <unicode hex="0043"/>
  <outline>
    <contour>
      <point x="829.28" y="-22.0" type="curve" smooth="yes"/>
      <point x="456.31" y="-22.0"/>
      <point x="106.62" y="229.87"/>
      <point x="106.62" y="721.28" type="curve" smooth="yes"/>
      <point x="106.62" y="1190.55"/>
      <point x="429.58" y="1482.69"/>
      <point x="815.31" y="1482.69" type="curve" smooth="yes"/>
      <point x="987.34" y="1482.69"/>
      <point x="1146.38" y="1443.14"/>
      <point x="1287.32" y="1329.48" type="curve"/>
      <point x="1200.69" y="1177.6" type="line"/>
      <point x="1078.99" y="1264.64"/>
      <point x="956.58" y="1293.91"/>
      <point x="834.38" y="1293.91" type="curve" smooth="yes"/>
      <point x="538.52" y="1293.91"/>
      <point x="338.61" y="1046.84"/>
      <point x="338.61" y="723.04" type="curve" smooth="yes"/>
      <point x="338.61" y="375.95"/>
      <point x="554.26" y="166.78"/>
      <point x="841.8" y="166.78" type="curve" smooth="yes"/>
      <point x="975.83" y="166.78"/>
      <point x="1112.83" y="208.26"/>
      <point x="1249.21" y="312.85" type="curve"/>
      <point x="1323.08" y="136.66" type="line"/>
      <point x="1173.73" y="23.86"/>
      <point x="1003.97" y="-22.0"/>
    </contour>
  </outline>
</glyph>
<glyph name="D" format="1">
  <advance width="1545.64"/>
  <unicode hex="0044"/>
  <outline>
    <contour>
      <point x="411.06" y="188.71" type="line"/>
      <point x="637.08" y="188.71" type="line" smooth="yes"/>
      <point x="1016.92" y="188.71"/>
      <point x="1205.96" y="391.14"/>
      <point x="1205.96" y="731.35" type="curve" smooth="yes"/>
      <point x="1205.96" y="1098.28"/>
      <point x="1005.32" y="1267.29"/>
      <point x="577.48" y="1267.29" type="curve" smooth="yes"/>
      <point x="411.06" y="1267.29" type="line"/>
    </contour>
    <contour>
      <point x="190.76" y="0.0" type="line"/>
      <point x="190.76" y="1456.0" type="line"/>
      <point x="555.1" y="1456.0" type="line" smooth="yes"/>
      <point x="1118.88" y="1456.0"/>
      <point x="1439.02" y="1231.35"/>
      <point x="1439.02" y="731.59" type="curve" smooth="yes"/>
      <point x="1439.02" y="266.13"/>
      <point x="1152.88" y="0.0"/>
      <point x="624.08" y="0.0" type="curve" smooth="yes"/>
    </contour>
  </outline>
</glyph>
<glyph name="E" format="1">
  <advance width="1206.48"/>
  <unicode hex="0045"/>
  <outline>
    <contour>
      <point x="190.76" y="0.0" type="line"/>
      <point x="190.76" y="1456.0" type="line"/>
      <point x="1084.33" y="1456.0" type="line"/>
      <point x="1084.33" y="1267.29" type="line"/>
      <point x="411.06" y="1267.29" type="line"/>
      <point x="411.06" y="840.01" type="line"/>
      <point x="1047.02" y="840.01" type="line"/>
      <point x="1047.02" y="650.61" type="line"/>
      <point x="412.44" y="650.61" type="line"/>
      <point x="412.44" y="188.71" type="line"/>
      <point x="1113.64" y="188.71" type="line"/>
      <point x="1113.64" y="0.0" type="line"/>
    </contour>
  </outline>
</glyph>
<glyph name="G" format="1">
  <advance width="1532.28"/>
  <unicode hex="0047"/>
  <outline>
    <contour>
      <point x="847.21" y="-22.69" type="curve" smooth="yes"/>
      <point x="361.69" y="-22.69"/>
      <point x="106.62" y="267.0"/>
      <point x="106.62" y="703.07" type="curve" smooth="yes"/>
      <point x="106.62" y="1145.12"/>
      <point x="409.39" y="1482.69"/>
      <point x="867.49" y="1482.69" type="curve" smooth="yes"/>
      <point x="1107.77" y="1482.69"/>
      <point x="1250.38" y="1411.74"/>
      <point x="1349.94" y="1337.38" type="curve"/>
      <point x="1261.31" y="1183.19" type="line"/>
      <point x="1169.4" y="1247.59"/>
      <point x="1047.13" y="1293.91"/>
      <point x="871.04" y="1293.91" type="curve" smooth="yes"/>
      <point x="538.51" y="1293.91"/>
      <point x="335.68" y="1035.31"/>
      <point x="335.68" y="714.69" type="curve" smooth="yes"/>
      <point x="335.68" y="391.91"/>
      <point x="501.85" y="165.4"/>
      <point x="856.66" y="165.4" type="curve" smooth="yes"/>
      <point x="951.03" y="165.4"/>
      <point x="1054.88" y="180.95"/>
      <point x="1141.91" y="210.98" type="curve"/>
      <point x="1141.91" y="589.99" type="line"/>
      <point x="788.23" y="589.99" type="line"/>
      <point x="788.23" y="778.39" type="line"/>
      <point x="1364.28" y="778.39" type="line"/>
      <point x="1364.28" y="85.76" type="line"/>
      <point x="1190.17" y="6.62"/>
      <point x="1016.14" y="-22.69"/>
    </contour>
  </outline>
</glyph>
<glyph name="H" format="1">
  <advance width="1572.03"/>
  <unicode hex="0048"/>
  <outline>
    <contour>
      <point x="199.44" y="0.0" type="line"/>
      <point x="199.44" y="1456.0" type="line"/>
      <point x="419.74" y="1456.0" type="line"/>
      <point x="419.74" y="840.46" type="line"/>
      <point x="1151.36" y="840.46" type="line"/>
      <point x="1151.36" y="1456.0" type="line"/>
      <point x="1371.35" y="1456.0" type="line"/>
      <point x="1371.35" y="0.0" type="line"/>
      <point x="1154.12" y="0.0" type="line"/>
      <point x="1154.12" y="652.61" type="line"/>
      <point x="422.5" y="652.61" type="line"/>
      <point x="422.5" y="0.0" type="line"/>
    </contour>
  </outline>
</glyph>
<glyph name="J" format="1">
  <advance width="851.57"/>
  <unicode hex="004A"/>
  <outline>
    <contour>
      <point x="290.54" y="-330.69" type="curve" smooth="yes"/>
      <point x="194.1" y="-330.69"/>
      <point x="91.65" y="-305.73"/>
      <point x="9.58" y="-275.89" type="curve"/>
      <point x="45.07" y="-104.53" type="line"/>
      <point x="111.03" y="-125.47"/>
      <point x="185.27" y="-144.05"/>
      <point x="255.98" y="-144.05" type="curve" smooth="yes"/>
      <point x="401.64" y="-144.05"/>
      <point x="441.27" y="-49.88"/>
      <point x="441.27" y="115.72" type="curve" smooth="yes"/>
      <point x="441.27" y="1456.0" type="line"/>
      <point x="661.57" y="1456.0" type="line"/>
      <point x="661.57" y="119.14" type="line" smooth="yes"/>
      <point x="661.57" y="-177.1"/>
      <point x="529.14" y="-330.69"/>
    </contour>
  </outline>
</glyph>
<glyph name="L" format="1">
  <advance width="1130.79"/>
  <unicode hex="004C"/>
  <outline>
    <contour>
      <point x="190.76" y="0.0" type="line"/>
      <point x="190.76" y="1456.0" type="line"/>
      <point x="411.06" y="1456.0" type="line"/>
      <point x="411.06" y="188.71" type="line"/>
      <point x="1085.99" y="188.71" type="line"/>
      <point x="1085.99" y="0.0" type="line"/>
    </contour>
  </outline>
</glyph>
<glyph name="M" format="1">
  <advance width="1941.14"/>
  <unicode hex="004D"/>
  <outline>
    <contour>
      <point x="190.76" y="0.0" type="line"/>
      <point x="190.76" y="1456.0" type="line"/>
      <point x="454.44" y="1456.0" type="line"/>
      <point x="873.15" y="509.11" type="line"/>
      <point x="972.95" y="283.72" type="line"/>
      <point x="1073.82" y="514.18" type="line"/>
      <point x="1488.63" y="1456.0" type="line"/>
      <point x="1750.38" y="1456.0" type="line"/>
      <point x="1750.38" y="0.0" type="line"/>
      <point x="1542.91" y="0.0" type="line"/>
      <point x="1542.91" y="1097.2" type="line"/>
      <point x="1463.62" y="922.38" type="line"/>
      <point x="1052.58" y="0.0" type="line"/>
      <point x="890.7" y="0.0" type="line"/>
      <point x="483.0" y="912.8" type="line"/>
      <point x="402.99" y="1094.19" type="line"/>
      <point x="402.99" y="0.0" type="line"/>
    </contour>
  </outline>
</glyph>
<glyph name="N" format="1">
  <advance width="1601.61"/>
  <unicode hex="004E"/>
  <outline>
    <contour>
      <point x="190.76" y="0.0" type="line"/>
      <point x="190.76" y="1456.0" type="line"/>
      <point x="426.37" y="1456.0" type="line"/>
      <point x="1094.95" y="477.34" type="line"/>
      <point x="1201.93" y="318.32" type="line"/>
      <point x="1201.93" y="1456.0" type="line"/>
      <point x="1410.85" y="1456.0" type="line"/>
      <point x="1410.85" y="0.0" type="line"/>
      <point x="1174.55" y="0.0" type="line"/>
      <point x="502.04" y="974.73" type="line"/>
      <point x="395.54" y="1134.89" type="line"/>
      <point x="395.54" y="0.0" type="line"/>
    </contour>
  </outline>
</glyph>
<glyph name="O" format="1">
  <advance width="1647.12"/>
  <unicode hex="004F"/>
  <outline>
    <contour>
      <point x="823.49" y="165.4" type="curve" smooth="yes"/>
      <point x="1148.3" y="165.4"/>
      <point x="1300.75" y="385.35"/>
      <point x="1300.75" y="732.14" type="curve" smooth="yes"/>
      <point x="1300.75" y="1062.52"/>
      <point x="1148.3" y="1294.6"/>
      <point x="826.25" y="1294.6" type="curve" smooth="yes"/>
      <point x="507.92" y="1294.6"/>
      <point x="343.75" y="1062.9"/>
      <point x="343.75" y="732.14" type="curve" smooth="yes"/>
      <point x="343.75" y="384.66"/>
      <point x="502.09" y="165.4"/>
    </contour>
    <contour>
      <point x="826.94" y="-22.69" type="curve" smooth="yes"/>
      <point x="375.35" y="-22.69"/>
      <point x="106.62" y="272.76"/>
      <point x="106.62" y="732.14" type="curve" smooth="yes"/>
      <point x="106.62" y="1174.66"/>
      <point x="374.04" y="1482.69"/>
      <point x="829.01" y="1482.69" type="curve" smooth="yes"/>
      <point x="1267.91" y="1482.69"/>
      <point x="1540.5" y="1175.73"/>
      <point x="1540.5" y="732.14" type="curve" smooth="yes"/>
      <point x="1540.5" y="274.07"/>
      <point x="1276.6" y="-22.69"/>
    </contour>
  </outline>
</glyph>
<glyph name="P" format="1">
  <advance width="1272.71"/>
  <unicode hex="0050"/>
  <outline>
    <contour>
      <point x="190.76" y="0.0" type="line"/>
      <point x="190.76" y="1456.0" type="line"/>
      <point x="606.69" y="1456.0" type="line" smooth="yes"/>
      <point x="949.45" y="1456.0"/>
      <point x="1204.09" y="1408.15"/>
      <point x="1204.09" y="1050.2" type="curve" smooth="yes"/>
      <point x="1204.09" y="739.92"/>
      <point x="991.16" y="645.47"/>
      <point x="658.8" y="645.47" type="curve" smooth="yes"/>
      <point x="411.06" y="645.47" type="line"/>
      <point x="411.06" y="0.0" type="line"/>
    </contour>
    <contour>
      <point x="411.06" y="833.87" type="line"/>
      <point x="655.73" y="833.87" type="line" smooth="yes"/>
      <point x="852.27" y="833.87"/>
      <point x="976.51" y="873.59"/>
      <point x="976.51" y="1048.2" type="curve" smooth="yes"/>
      <point x="976.51" y="1248.68"/>
      <point x="841.3" y="1265.91"/>
      <point x="613.83" y="1265.91" type="curve" smooth="yes"/>
      <point x="411.06" y="1265.91" type="line"/>
    </contour>
  </outline>
</glyph>
<glyph name="R" format="1">
  <advance width="1361.4"/>
  <unicode hex="0052"/>
  <outline>
    <contour>
      <point x="190.76" y="0.0" type="line"/>
      <point x="190.76" y="1456.0" type="line"/>
      <point x="674.41" y="1456.0" type="line" smooth="yes"/>
      <point x="949.67" y="1456.0"/>
      <point x="1180.24" y="1391.99"/>
      <point x="1180.24" y="1062.96" type="curve" smooth="yes"/>
      <point x="1180.24" y="897.59"/>
      <point x="1097.1" y="759.93"/>
      <point x="898.06" y="712.93" type="curve"/>
      <point x="999.04" y="672.55"/>
      <point x="1058.53" y="574.92"/>
      <point x="1110.77" y="445.51" type="curve" smooth="yes"/>
      <point x="1291.54" y="0.0" type="line"/>
      <point x="1053.41" y="0.0" type="line"/>
      <point x="888.96" y="429.28" type="line" smooth="yes"/>
      <point x="828.93" y="586.82"/>
      <point x="785.96" y="631.99"/>
      <point x="635.56" y="631.99" type="curve" smooth="yes"/>
      <point x="411.06" y="631.99" type="line"/>
      <point x="411.06" y="0.0" type="line"/>
    </contour>
    <contour>
      <point x="408.99" y="819.01" type="line"/>
      <point x="657.09" y="819.01" type="line" smooth="yes"/>
      <point x="818.46" y="819.01"/>
      <point x="947.18" y="867.8"/>
      <point x="947.18" y="1049.03" type="curve" smooth="yes"/>
      <point x="947.18" y="1225.88"/>
      <point x="859.91" y="1267.29"/>
      <point x="677.75" y="1267.29" type="curve" smooth="yes"/>
      <point x="408.99" y="1267.29" type="line"/>
    </contour>
  </outline>
</glyph>
<glyph name="S" format="1">
  <advance width="1231.4"/>
  <unicode hex="0053"/>
  <outline>
    <contour>
      <point x="612.56" y="-22.69" type="curve" smooth="yes"/>
      <point x="385.17" y="-22.69"/>
      <point x="193.54" y="70.32"/>
      <point x="121.72" y="142.38" type="curve"/>
      <point x="217.66" y="301.5" type="line"/>
      <point x="289.85" y="244.52"/>
      <point x="454.41" y="165.4"/>
      <point x="602.59" y="165.4" type="curve" smooth="yes"/>
      <point x="791.48" y="165.4"/>
      <point x="886.61" y="241.6"/>
      <point x="886.61" y="385.87" type="curve" smooth="yes"/>
      <point x="886.61" y="519.37"/>
      <point x="843.52" y="573.4"/>
      <point x="550.6" y="660.71" type="curve" smooth="yes"/>
      <point x="271.41" y="744.58"/>
      <point x="123.86" y="847.44"/>
      <point x="123.86" y="1093.03" type="curve" smooth="yes"/>
      <point x="123.86" y="1352.86"/>
      <point x="345.96" y="1482.69"/>
      <point x="620.69" y="1482.69" type="curve" smooth="yes"/>
      <point x="890.31" y="1482.69"/>
      <point x="1009.48" y="1404.09"/>
      <point x="1092.44" y="1323.27" type="curve"/>
      <point x="981.15" y="1175.6" type="line"/>
      <point x="905.61" y="1246.83"/>
      <point x="781.74" y="1293.91"/>
      <point x="650.35" y="1293.91" type="curve" smooth="yes"/>
      <point x="489.05" y="1293.91"/>
      <point x="357.99" y="1236.02"/>
      <point x="357.99" y="1101.17" type="curve" smooth="yes"/>
      <point x="357.99" y="962.6"/>
      <point x="409.94" y="921.91"/>
      <point x="674.39" y="840.77" type="curve" smooth="yes"/>
      <point x="1015.77" y="735.94"/>
      <point x="1118.5" y="625.43"/>
      <point x="1118.5" y="383.73" type="curve" smooth="yes"/>
      <point x="1118.5" y="97.89"/>
      <point x="881.11" y="-22.69"/>
    </contour>
  </outline>
</glyph>
<glyph name="underscore" format="1">
  <advance width="973.2"/>
  <unicode hex="005F"/>
  <outline>
    <contour>
      <point x="-8.9" y="-261.96" type="line"/>
      <point x="-8.9" y="-93.94" type="line"/>
      <point x="982.1" y="-93.94" type="line"/>
      <point x="982.1" y="-261.96" type="line"/>
    </contour>
  </outline>
</glyph>
<glyph name="grave" format="1">
  <advance width="602.66"/>
  <unicode hex="0060"/>
  <outline>
    <contour>
      <point x="361.43" y="1169.24" type="line"/>
      <point x="18.39" y="1485.79" type="line"/>
      <point x="293.8" y="1485.79" type="line"/>
      <point x="549.08" y="1169.24" type="line"/>
    </contour>
  </outline>
</glyph>
<glyph name="b" format="1">
  <advance width="1278.94"/>
  <unicode hex="0062"/>
  <outline>
    <contour>
      <point x="705.55" y="-22.69" type="curve" smooth="yes"/>
      <point x="542.77" y="-22.69"/>
      <point x="421.6" y="62.75"/>
      <point x="373.98" y="152.12" type="curve"/>
      <point x="373.36" y="0.0" type="line"/>
      <point x="155.3" y="0.0" type="line"/>
      <point x="160.13" y="148.35"/>
      <point x="162.99" y="241.14"/>
      <point x="162.99" y="271.38" type="curve" smooth="yes"/>
      <point x="162.99" y="1471.99" type="line"/>
      <point x="375.98" y="1471.99" type="line"/>
      <point x="375.98" y="868.32" type="line"/>
      <point x="408.24" y="940.78"/>
      <point x="517.16" y="1052.0"/>
      <point x="711.9" y="1052.0" type="curve" smooth="yes"/>
      <point x="997.94" y="1052.0"/>
      <point x="1177.28" y="839.68"/>
      <point x="1177.28" y="525.65" type="curve" smooth="yes"/>
      <point x="1177.28" y="192.52"/>
      <point x="971.58" y="-22.69"/>
    </contour>
    <contour>
      <point x="672.61" y="150.64" type="curve" smooth="yes"/>
      <point x="863.54" y="150.64"/>
      <point x="954.15" y="307.85"/>
      <point x="954.15" y="522.75" type="curve" smooth="yes"/>
      <point x="954.15" y="724.98"/>
      <point x="854.99" y="878.67"/>
      <point x="672.65" y="878.67" type="curve" smooth="yes"/>
      <point x="481.83" y="878.67"/>
      <point x="367.01" y="724.05"/>
      <point x="367.01" y="515.0" type="curve" smooth="yes"/>
      <point x="367.01" y="307.23"/>
      <point x="476.41" y="150.64"/>
    </contour>
  </outline>
</glyph>
<glyph name="d" format="1">
  <advance width="1266.07"/>
  <unicode hex="0064"/>
  <outline>
    <contour>
      <point x="574.69" y="-22.69" type="curve" smooth="yes"/>
      <point x="307.11" y="-22.69"/>
      <point x="103.52" y="181.69"/>
      <point x="103.52" y="507.38" type="curve" smooth="yes"/>
      <point x="103.52" y="814.09"/>
      <point x="275.96" y="1052.0"/>
      <point x="587.66" y="1052.0" type="curve" smooth="yes"/>
      <point x="751.14" y="1052.0"/>
      <point x="858.82" y="964.0"/>
      <point x="893.16" y="895.12" type="curve"/>
      <point x="893.16" y="1471.99" type="line"/>
      <point x="1106.15" y="1471.99" type="line"/>
      <point x="1106.15" y="267.04" type="line"/>
      <point x="1106.46" y="222.23"/>
      <point x="1107.77" y="172.22"/>
      <point x="1113.53" y="0.0" type="curve"/>
      <point x="895.78" y="0.0" type="line"/>
      <point x="893.16" y="152.64" type="line"/>
      <point x="861.96" y="77.07"/>
      <point x="761.14" y="-22.69"/>
    </contour>
    <contour>
      <point x="611.08" y="150.64" type="curve" smooth="yes"/>
      <point x="804.8" y="150.64"/>
      <point x="898.3" y="307.23"/>
      <point x="898.3" y="519.96" type="curve" smooth="yes"/>
      <point x="898.3" y="722.81"/>
      <point x="801.9" y="878.67"/>
      <point x="613.87" y="878.67" type="curve" smooth="yes"/>
      <point x="424.91" y="878.67"/>
      <point x="326.65" y="723.12"/>
      <point x="326.65" y="512.52" type="curve" smooth="yes"/>
      <point x="326.65" y="307.85"/>
      <point x="419.53" y="150.64"/>
    </contour>
  </outline>
</glyph>
<glyph name="e" format="1">
  <advance width="1185.05"/>
  <unicode hex="0065"/>
  <outline>
    <contour>
      <point x="651.63" y="-22.69" type="curve" smooth="yes"/>
      <point x="312.45" y="-22.69"/>
      <point x="104.9" y="192.66"/>
      <point x="104.9" y="511.38" type="curve" smooth="yes"/>
      <point x="104.9" y="813.85"/>
      <point x="302.93" y="1052.0"/>
      <point x="620.94" y="1052.0" type="curve" smooth="yes"/>
      <point x="932.06" y="1052.0"/>
      <point x="1076.39" y="823.92"/>
      <point x="1076.39" y="526.75" type="curve"/>
      <point x="1076.39" y="519.16"/>
      <point x="1075.39" y="502.4"/>
      <point x="1072.32" y="479.58" type="curve"/>
      <point x="329.03" y="479.58" type="line"/>
      <point x="335.17" y="256.97"/>
      <point x="474.06" y="150.64"/>
      <point x="666.36" y="150.64" type="curve" smooth="yes"/>
      <point x="784.01" y="150.64"/>
      <point x="891.94" y="187.26"/>
      <point x="990.6" y="263.5" type="curve"/>
      <point x="1051.57" y="106.69" type="line"/>
      <point x="937.32" y="19.62"/>
      <point x="807.53" y="-22.69"/>
    </contour>
    <contour>
      <point x="333.34" y="624.87" type="curve"/>
      <point x="888.99" y="624.87" type="line"/>
      <point x="869.23" y="796.37"/>
      <point x="767.31" y="884.19"/>
      <point x="628.91" y="884.19" type="curve" smooth="yes"/>
      <point x="473.78" y="884.19"/>
      <point x="362.48" y="787.61"/>
    </contour>
  </outline>
</glyph>
<glyph name="f" format="1">
  <advance width="769.14"/>
  <unicode hex="0066"/>
  <outline>
    <contour>
      <point x="255.9" y="0.0" type="line"/>
      <point x="255.9" y="883.81" type="line"/>
      <point x="69.38" y="883.81" type="line"/>
      <point x="69.38" y="1026.0" type="line"/>
      <point x="255.9" y="1026.0" type="line"/>
      <point x="255.9" y="1089.74" type="line" smooth="yes"/>
      <point x="255.9" y="1364.89"/>
      <point x="294.31" y="1486.48"/>
      <point x="667.26" y="1486.48" type="curve" smooth="yes"/>
      <point x="717.4" y="1486.48" type="line"/>
      <point x="711.88" y="1320.53" type="line"/>
      <point x="487.58" y="1320.53"/>
      <point x="468.89" y="1285.47"/>
      <point x="468.89" y="1101.01" type="curve" smooth="yes"/>
      <point x="468.89" y="1026.0" type="line"/>
      <point x="707.54" y="1026.0" type="line"/>
      <point x="707.54" y="883.81" type="line"/>
      <point x="468.89" y="883.81" type="line"/>
      <point x="468.89" y="0.0" type="line"/>
    </contour>
  </outline>
</glyph>
<glyph name="g" format="1">
  <advance width="1247.1"/>
  <unicode hex="0067"/>
  <outline>
    <contour>
      <point x="606.91" y="169.19" type="curve" smooth="yes"/>
      <point x="815.56" y="169.19"/>
      <point x="895.85" y="334.33"/>
      <point x="895.85" y="530.68" type="curve" smooth="yes"/>
      <point x="895.85" y="734.29"/>
      <point x="800.14" y="878.67"/>
      <point x="617.25" y="878.67" type="curve" smooth="yes"/>
      <point x="428.67" y="878.67"/>
      <point x="326.65" y="720.6"/>
      <point x="326.65" y="515.69" type="curve" smooth="yes"/>
      <point x="326.65" y="304.08"/>
      <point x="421.43" y="169.19"/>
    </contour>
    <contour>
      <point x="223.66" y="-139.46" type="line"/>
      <point x="345.49" y="-215.5"/>
      <point x="451.6" y="-240.29"/>
      <point x="565.41" y="-240.29" type="curve" smooth="yes"/>
      <point x="767.26" y="-240.29"/>
      <point x="888.26" y="-142.89"/>
      <point x="888.26" y="66.22" type="curve" smooth="yes"/>
      <point x="888.26" y="244.71" type="line"/>
      <point x="923.16" y="219.88" type="line"/>
      <point x="895.34" y="156.25"/>
      <point x="815.8" y="4.14"/>
      <point x="595.56" y="4.14" type="curve" smooth="yes"/>
      <point x="304.9" y="4.14"/>
      <point x="103.52" y="201.0"/>
      <point x="103.52" y="513.76" type="curve" smooth="yes"/>
      <point x="103.52" y="815.4"/>
      <point x="266.75" y="1052.0"/>
      <point x="585.21" y="1052.0" type="curve" smooth="yes"/>
      <point x="789.64" y="1052.0"/>
      <point x="889.2" y="923.46"/>
      <point x="924.19" y="820.77" type="curve"/>
      <point x="888.64" y="799.42" type="line"/>
      <point x="890.81" y="1026.0" type="line"/>
      <point x="1113.46" y="1026.0" type="line"/>
      <point x="1113.46" y="1026.0"/>
      <point x="1099.18" y="867.35"/>
      <point x="1099.18" y="719.18" type="curve" smooth="yes"/>
      <point x="1099.18" y="143.28" type="line" smooth="yes"/>
      <point x="1099.18" y="-146.72"/>
      <point x="977.77" y="-416.93"/>
      <point x="576.69" y="-416.93" type="curve" smooth="yes"/>
      <point x="437.9" y="-416.93"/>
      <point x="312.69" y="-387.93"/>
      <point x="188.31" y="-324.86" type="curve"/>
    </contour>
  </outline>
</glyph>
<glyph name="h" format="1">
  <advance width="1230.13"/>
  <unicode hex="0068"/>
  <outline>
    <contour>
      <point x="157.3" y="0.0" type="line"/>
      <point x="157.3" y="1471.99" type="line"/>
      <point x="370.98" y="1471.99" type="line"/>
      <point x="370.98" y="878.7" type="line"/>
      <point x="428.77" y="985.04"/>
      <point x="574.36" y="1052.0"/>
      <point x="701.17" y="1052.0" type="curve" smooth="yes"/>
      <point x="1000.03" y="1052.0"/>
      <point x="1085.45" y="812.34"/>
      <point x="1085.45" y="597.36" type="curve" smooth="yes"/>
      <point x="1085.45" y="0.0" type="line"/>
      <point x="871.77" y="0.0" type="line"/>
      <point x="871.77" y="598.4" type="line" smooth="yes"/>
      <point x="871.77" y="797.71"/>
      <point x="806.53" y="878.67"/>
      <point x="667.96" y="878.67" type="curve" smooth="yes"/>
      <point x="517.11" y="878.67"/>
      <point x="370.98" y="757.3"/>
      <point x="370.98" y="620.55" type="curve" smooth="yes"/>
      <point x="370.98" y="0.0" type="line"/>
    </contour>
  </outline>
</glyph>
<glyph name="o" format="1">
  <advance width="1270.08"/>
  <unicode hex="006F"/>
  <outline>
    <contour>
      <point x="637.59" y="150.64" type="curve" smooth="yes"/>
      <point x="847.48" y="150.64"/>
      <point x="942.88" y="308.16"/>
      <point x="942.88" y="513.76" type="curve" smooth="yes"/>
      <point x="942.88" y="723.43"/>
      <point x="842.72" y="878.67"/>
      <point x="636.35" y="878.67" type="curve" smooth="yes"/>
      <point x="429.36" y="878.67"/>
      <point x="327.2" y="723.43"/>
      <point x="327.2" y="513.14" type="curve" smooth="yes"/>
      <point x="327.2" y="307.85"/>
      <point x="425.53" y="150.64"/>
    </contour>
    <contour>
      <point x="638.42" y="-22.69" type="curve" smooth="yes"/>
      <point x="288.89" y="-22.69"/>
      <point x="103.52" y="209.91"/>
      <point x="103.52" y="512.38" type="curve" smooth="yes"/>
      <point x="103.52" y="820.92"/>
      <point x="293.34" y="1052.0"/>
      <point x="639.66" y="1052.0" type="curve" smooth="yes"/>
      <point x="988.33" y="1052.0"/>
      <point x="1166.56" y="822.3"/>
      <point x="1166.56" y="511.62" type="curve" smooth="yes"/>
      <point x="1166.56" y="212.29"/>
      <point x="982.5" y="-22.69"/>
    </contour>
  </outline>
</glyph>
<glyph name="p" format="1">
  <advance width="1265.35"/>
  <unicode hex="0070"/>
  <outline>
    <contour>
      <point x="169.51" y="-408.37" type="line"/>
      <point x="169.51" y="712.46" type="line" smooth="yes"/>
      <point x="169.51" y="799.51"/>
      <point x="161.68" y="921.48"/>
      <point x="155.3" y="1026.0" type="curve"/>
      <point x="381.12" y="1026.0" type="line"/>
      <point x="381.12" y="862.15" type="line"/>
      <point x="409.66" y="951.44"/>
      <point x="541.51" y="1052.0"/>
      <point x="707.94" y="1052.0" type="curve" smooth="yes"/>
      <point x="989.49" y="1052.0"/>
      <point x="1163.21" y="821.4"/>
      <point x="1163.21" y="525.62" type="curve" smooth="yes"/>
      <point x="1163.21" y="224.19"/>
      <point x="988.63" y="-22.69"/>
      <point x="701.28" y="-22.69" type="curve" smooth="yes"/>
      <point x="531.41" y="-22.69"/>
      <point x="406.11" y="77.56"/>
      <point x="381.12" y="152.75" type="curve"/>
      <point x="381.12" y="-408.37" type="line"/>
    </contour>
    <contour>
      <point x="658.58" y="150.64" type="curve" smooth="yes"/>
      <point x="849.2" y="150.64"/>
      <point x="939.53" y="309.4"/>
      <point x="939.53" y="516.86" type="curve" smooth="yes"/>
      <point x="939.53" y="724.67"/>
      <point x="845.68" y="878.67"/>
      <point x="660.44" y="878.67" type="curve" smooth="yes"/>
      <point x="471.17" y="878.67"/>
      <point x="372.84" y="721.57"/>
      <point x="372.84" y="508.49" type="curve" smooth="yes"/>
      <point x="372.84" y="306.3"/>
      <point x="466.41" y="150.64"/>
    </contour>
  </outline>
</glyph>
<glyph name="r" format="1">
  <advance width="803.26"/>
  <unicode hex="0072"/>
  <outline>
    <contour>
      <point x="171.51" y="0.0" type="line"/>
      <point x="171.51" y="771.41" type="line" smooth="yes"/>
      <point x="171.51" y="850.07"/>
      <point x="156.61" y="1026.0"/>
      <point x="156.61" y="1026.0" type="curve"/>
      <point x="383.12" y="1026.0" type="line"/>
      <point x="383.12" y="877.32" type="line"/>
      <point x="449.85" y="985.83"/>
      <point x="536.29" y="1051.38"/>
      <point x="647.77" y="1051.38" type="curve" smooth="yes"/>
      <point x="681.25" y="1051.38"/>
      <point x="716.56" y="1046.69"/>
      <point x="752.32" y="1037.31" type="curve"/>
      <point x="752.32" y="848.91" type="line"/>
      <point x="717.14" y="860.12"/>
      <point x="675.14" y="868.36"/>
      <point x="633.11" y="868.36" type="curve" smooth="yes"/>
      <point x="490.05" y="868.36"/>
      <point x="385.19" y="765.96"/>
      <point x="385.19" y="575.59" type="curve" smooth="yes"/>
      <point x="385.19" y="0.0" type="line"/>
    </contour>
  </outline>
</glyph>
<glyph name="u" format="1">
  <advance width="1210.88"/>
  <unicode hex="0075"/>
  <outline>
    <contour>
      <point x="540.61" y="-22.69" type="curve" smooth="yes"/>
      <point x="268.35" y="-22.69"/>
      <point x="143.44" y="152.26"/>
      <point x="143.44" y="384.58" type="curve" smooth="yes"/>
      <point x="143.44" y="1026.0" type="line"/>
      <point x="355.74" y="1026.0" type="line"/>
      <point x="355.74" y="386.34" type="line" smooth="yes"/>
      <point x="355.74" y="226.63"/>
      <point x="439.53" y="150.64"/>
      <point x="581.41" y="150.64" type="curve" smooth="yes"/>
      <point x="745.5" y="150.64"/>
      <point x="835.35" y="243.38"/>
      <point x="835.35" y="414.17" type="curve" smooth="yes"/>
      <point x="835.35" y="1026.0" type="line"/>
      <point x="1049.03" y="1026.0" type="line"/>
      <point x="1049.03" y="263.94" type="line" smooth="yes"/>
      <point x="1049.03" y="195.95"/>
      <point x="1057.24" y="26.04"/>
      <point x="1059.1" y="0.0" type="curve"/>
      <point x="839.04" y="0.0" type="line"/>
      <point x="835.35" y="158.03" type="line"/>
      <point x="801.4" y="85.22"/>
      <point x="712.65" y="-22.69"/>
    </contour>
  </outline>
</glyph>
<glyph name="v" format="1">
  <advance width="1086.72"/>
  <unicode hex="0076"/>
  <outline>
    <contour>
      <point x="443.35" y="0.0" type="line"/>
      <point x="12.59" y="1026.0" type="line"/>
      <point x="248.24" y="1026.0" type="line"/>
      <point x="474.25" y="435.81" type="line" smooth="yes"/>
      <point x="551.74" y="229.0" type="line"/>
      <point x="625.23" y="435.81" type="line"/>
      <point x="844.86" y="1026.0" type="line"/>
      <point x="1074.44" y="1026.0" type="line"/>
      <point x="642.61" y="0.0" type="line"/>
    </contour>
  </outline>
</glyph>
<glyph name="w" format="1">
  <advance width="1656.54"/>
  <unicode hex="0077"/>
  <outline>
    <contour>
      <point x="566.09" y="0.0" type="line"/>
      <point x="784.18" y="617.82" type="line"/>
      <point x="832.56" y="755.51" type="line"/>
      <point x="877.56" y="616.89" type="line"/>
      <point x="1082.72" y="0.0" type="line"/>
      <point x="1270.94" y="0.0" type="line"/>
      <point x="1634.2" y="1026.0" type="line"/>
      <point x="1431.49" y="1026.0" type="line"/>
      <point x="1230.7" y="375.32" type="line"/>
      <point x="1193.11" y="254.69" type="line"/>
      <point x="1153.21" y="377.77" type="line" smooth="yes"/>
      <point x="944.33" y="1026.0" type="line"/>
      <point x="748.66" y="1026.0" type="line"/>
      <point x="534.3" y="389.85" type="line"/>
      <point x="489.5" y="256.38" type="line"/>
      <point x="445.32" y="396.47" type="line"/>
      <point x="249.47" y="1026.0" type="line"/>
      <point x="22.34" y="1026.0" type="line"/>
      <point x="377.18" y="0.0" type="line"/>
    </contour>
  </outline>
</glyph>
<glyph name="braceleft" format="1">
  <advance width="673.19"/>
  <unicode hex="007B"/>
  <outline>
    <contour>
      <point x="606.59" y="-193.97" type="line"/>
      <point x="326.06" y="-191.49"/>
      <point x="224.59" y="-68.36"/>
      <point x="224.59" y="135.37" type="curve" smooth="yes"/>
      <point x="224.59" y="365.25" type="line" smooth="yes"/>
      <point x="224.59" y="505.81"/>
      <point x="176.49" y="573.06"/>
      <point x="57.68" y="578.33" type="curve"/>
      <point x="57.68" y="732.07" type="line"/>
      <point x="166.71" y="735.48"/>
      <point x="223.59" y="802.4"/>
      <point x="223.9" y="924.67" type="curve"/>
      <point x="223.9" y="1154.9" type="line" smooth="yes"/>
      <point x="223.9" y="1350.28"/>
      <point x="310.63" y="1502.23"/>
      <point x="608.66" y="1502.23" type="curve"/>
      <point x="608.66" y="1334.83" type="line"/>
      <point x="481.2" y="1333.9"/>
      <point x="442.72" y="1256.57"/>
      <point x="442.72" y="1115.08" type="curve" smooth="yes"/>
      <point x="442.72" y="866.79" type="line" smooth="yes"/>
      <point x="442.72" y="752.57"/>
      <point x="363.18" y="682.37"/>
      <point x="276.92" y="649.68" type="curve"/>
      <point x="369.52" y="604.92"/>
      <point x="442.72" y="523.5"/>
      <point x="442.72" y="392.1" type="curve" smooth="yes"/>
      <point x="442.72" y="138.91" type="line" smooth="yes"/>
      <point x="442.72" y="-4.62"/>
      <point x="515.4" y="-26.57"/>
      <point x="606.59" y="-27.26" type="curve"/>
    </contour>
  </outline>
</glyph>
<glyph name="section" format="1">
  <advance width="1084.91"/>
  <unicode hex="00A7"/>
  <outline>
    <contour>
      <point x="630.49" y="559.71" type="curve"/>
      <point x="667.2" y="590.05"/>
      <point x="701.05" y="634.9"/>
      <point x="701.05" y="693.89" type="curve" smooth="yes"/>
      <point x="701.05" y="789.19"/>
      <point x="598.7" y="814.22"/>
      <point x="491.55" y="865.81" type="curve"/>
      <point x="455.29" y="844.37"/>
      <point x="389.44" y="794.65"/>
      <point x="389.44" y="729.83" type="curve" smooth="yes"/>
      <point x="389.44" y="649.77"/>
      <point x="488.28" y="621.23"/>
    </contour>
    <contour>
      <point x="509.32" y="-68.96" type="curve" smooth="yes"/>
      <point x="407.28" y="-68.96"/>
      <point x="295.52" y="-49.89"/>
      <point x="195.96" y="-11.44" type="curve"/>
      <point x="195.34" y="166.41" type="line"/>
      <point x="289.89" y="126.24"/>
      <point x="408.0" y="101.03"/>
      <point x="500.8" y="101.03" type="curve" smooth="yes"/>
      <point x="614.92" y="101.03"/>
      <point x="691.71" y="153.67"/>
      <point x="691.71" y="237.91" type="curve"/>
      <point x="692.33" y="305.24"/>
      <point x="615.1" y="340.2"/>
      <point x="396.23" y="442.93" type="curve" smooth="yes"/>
      <point x="262.58" y="504.48"/>
      <point x="179.65" y="591.52"/>
      <point x="179.65" y="712.31" type="curve" smooth="yes"/>
      <point x="179.65" y="813.2"/>
      <point x="249.5" y="898.82"/>
      <point x="342.56" y="949.17" type="curve"/>
      <point x="258.98" y="1008.48"/>
      <point x="203.58" y="1081.27"/>
      <point x="203.58" y="1191.06" type="curve" smooth="yes"/>
      <point x="203.58" y="1389.17"/>
      <point x="379.03" y="1484.41"/>
      <point x="589.72" y="1484.41" type="curve" smooth="yes"/>
      <point x="681.24" y="1484.41"/>
      <point x="770.08" y="1469.1"/>
      <point x="860.12" y="1439.58" type="curve"/>
      <point x="860.12" y="1269.01" type="line"/>
      <point x="799.19" y="1288.35"/>
      <point x="696.26" y="1322.39"/>
      <point x="611.56" y="1322.39" type="curve" smooth="yes"/>
      <point x="514.4" y="1322.39"/>
      <point x="429.68" y="1281.71"/>
      <point x="429.68" y="1201.27" type="curve" smooth="yes"/>
      <point x="429.68" y="1133.0"/>
      <point x="500.79" y="1077.31"/>
      <point x="652.23" y="1009.45" type="curve" smooth="yes"/>
      <point x="799.81" y="938.69"/>
      <point x="924.57" y="865.76"/>
      <point x="924.57" y="721.69" type="curve" smooth="yes"/>
      <point x="924.57" y="621.73"/>
      <point x="860.75" y="542.56"/>
      <point x="774.1" y="480.11" type="curve"/>
      <point x="859.06" y="433.18"/>
      <point x="917.5" y="353.94"/>
      <point x="917.5" y="244.84" type="curve" smooth="yes"/>
      <point x="917.5" y="34.59"/>
      <point x="730.91" y="-68.96"/>
    </contour>
  </outline>
</glyph>
<glyph name="dieresis" format="1">
  <advance width="743.0"/>
  <unicode hex="00A8"/>
  <outline>
    <contour>
      <point x="58.45" y="1149.19" type="line"/>
      <point x="58.45" y="1351.52" type="line"/>
      <point x="272.13" y="1351.52" type="line"/>
      <point x="272.13" y="1149.19" type="line"/>
    </contour>
    <contour>
      <point x="469.8" y="1149.19" type="line"/>
      <point x="469.8" y="1351.52" type="line"/>
      <point x="682.79" y="1351.52" type="line"/>
      <point x="682.79" y="1149.19" type="line"/>
    </contour>
  </outline>
</glyph>
<glyph name="registered" format="1">
  <advance width="1721.27"/>
  <unicode hex="00AE"/>
  <outline>
    <contour>
      <point x="860.48" y="1483.62" type="curve" smooth="yes"/>
      <point x="445.55" y="1483.62"/>
      <point x="106.62" y="1144.69"/>
      <point x="106.62" y="729.76" type="curve" smooth="yes"/>
      <point x="106.62" y="314.83"/>
      <point x="445.55" y="-24.79"/>
      <point x="860.48" y="-24.79" type="curve" smooth="yes"/>
      <point x="1275.41" y="-24.79"/>
      <point x="1614.65" y="314.83"/>
      <point x="1614.65" y="729.76" type="curve" smooth="yes"/>
      <point x="1614.65" y="1144.69"/>
      <point x="1275.41" y="1483.62"/>
    </contour>
    <contour>
      <point x="860.1" y="82.56" type="curve" smooth="yes"/>
      <point x="509.69" y="82.56"/>
      <point x="230.66" y="376.35"/>
      <point x="230.66" y="726.45" type="curve" smooth="yes"/>
      <point x="230.66" y="1076.86"/>
      <point x="509.69" y="1370.65"/>
      <point x="860.1" y="1370.65" type="curve" smooth="yes"/>
      <point x="1209.51" y="1370.65"/>
      <point x="1489.23" y="1076.86"/>
      <point x="1489.23" y="726.45" type="curve" smooth="yes"/>
      <point x="1489.23" y="376.35"/>
      <point x="1209.51" y="82.56"/>
    </contour>
    <contour>
      <point x="719.08" y="781.97" type="line"/>
      <point x="719.08" y="1031.29" type="line"/>
      <point x="831.56" y="1031.29" type="line" smooth="yes"/>
      <point x="1002.61" y="1031.29"/>
      <point x="1042.81" y="1017.81"/>
      <point x="1042.81" y="905.51" type="curve" smooth="yes"/>
      <point x="1042.81" y="803.52"/>
      <point x="965.33" y="781.97"/>
      <point x="824.38" y="781.97" type="curve" smooth="yes"/>
    </contour>
    <contour>
      <point x="719.7" y="283.35" type="line"/>
      <point x="719.7" y="646.54" type="line"/>
      <point x="862.1" y="646.54" type="line"/>
      <point x="1031.57" y="283.35" type="line"/>
      <point x="1238.9" y="283.35" type="line"/>
      <point x="1039.15" y="673.89" type="line"/>
      <point x="1193.45" y="709.65"/>
      <point x="1233.0" y="810.93"/>
      <point x="1233.0" y="918.44" type="curve" smooth="yes"/>
      <point x="1233.0" y="1086.89"/>
      <point x="1115.62" y="1179.58"/>
      <point x="831.9" y="1179.58" type="curve" smooth="yes"/>
      <point x="532.37" y="1179.58" type="line"/>
      <point x="532.37" y="283.35" type="line"/>
    </contour>
  </outline>
</glyph>
<glyph name="plusminus" format="1">
  <advance width="1250.05"/>
  <unicode hex="00B1"/>
  <outline>
    <contour>
      <point x="524.2" y="271.29" type="line"/>
      <point x="524.2" y="592.93" type="line"/>
      <point x="192.24" y="592.93" type="line"/>
      <point x="192.24" y="768.19" type="line"/>
      <point x="520.13" y="768.19" type="line"/>
      <point x="520.13" y="1093.9" type="line"/>
      <point x="720.88" y="1093.9" type="line"/>
      <point x="720.88" y="768.19" type="line"/>
      <point x="1054.5" y="768.19" type="line"/>
      <point x="1054.5" y="592.93" type="line"/>
      <point x="728.33" y="592.93" type="line"/>
      <point x="728.33" y="271.29" type="line"/>
    </contour>
    <contour>
      <point x="186.52" y="0.0" type="line"/>
      <point x="186.52" y="158.36" type="line"/>
      <point x="1067.94" y="158.36" type="line"/>
      <point x="1067.94" y="0.0" type="line"/>
    </contour>
  </outline>
</glyph>
<glyph name="threesuperior" format="1">
  <advance width="1036.13"/>
  <unicode hex="00B3"/>
  <outline>
    <contour>
      <point x="538.19" y="597.73" type="curve" smooth="yes"/>
      <point x="438.74" y="597.73"/>
      <point x="335.15" y="630.73"/>
      <point x="258.73" y="692.66" type="curve"/>
      <point x="319.42" y="809.36" type="line"/>
      <point x="394.43" y="756.98"/>
      <point x="467.43" y="732.74"/>
      <point x="526.98" y="732.74" type="curve" smooth="yes"/>
      <point x="616.77" y="732.74"/>
      <point x="674.04" y="783.43"/>
      <point x="674.04" y="861.15" type="curve" smooth="yes"/>
      <point x="674.04" y="937.76"/>
      <point x="605.53" y="979.97"/>
      <point x="492.85" y="979.97" type="curve" smooth="yes"/>
      <point x="415.46" y="979.97" type="line"/>
      <point x="415.46" y="1111.08" type="line"/>
      <point x="488.61" y="1111.08" type="line" smooth="yes"/>
      <point x="582.22" y="1111.08"/>
      <point x="651.11" y="1147.98"/>
      <point x="651.11" y="1217.59" type="curve" smooth="yes"/>
      <point x="651.11" y="1289.38"/>
      <point x="600.73" y="1322.69"/>
      <point x="524.25" y="1322.69" type="curve" smooth="yes"/>
      <point x="459.46" y="1322.69"/>
      <point x="382.7" y="1297.21"/>
      <point x="311.9" y="1251.59" type="curve"/>
      <point x="252.52" y="1362.77" type="line"/>
      <point x="336.29" y="1420.7"/>
      <point x="446.43" y="1454.8"/>
      <point x="544.88" y="1454.8" type="curve" smooth="yes"/>
      <point x="690.4" y="1454.8"/>
      <point x="812.4" y="1382.46"/>
      <point x="812.4" y="1234.39" type="curve" smooth="yes"/>
      <point x="812.4" y="1166.74"/>
      <point x="782.68" y="1090.05"/>
      <point x="666.44" y="1056.15" type="curve"/>
      <point x="790.96" y="1025.32"/>
      <point x="838.92" y="943.11"/>
      <point x="838.92" y="858.15" type="curve" smooth="yes"/>
      <point x="838.92" y="684.45"/>
      <point x="699.19" y="597.73"/>
    </contour>
  </outline>
</glyph>
<glyph name="periodcentered" format="1">
  <advance width="531.94"/>
  <unicode hex="00B7"/>
  <outline>
    <contour>
      <point x="136.08" y="536.46" type="line"/>
      <point x="136.08" y="782.34" type="line"/>
      <point x="395.86" y="782.34" type="line"/>
      <point x="395.86" y="536.46" type="line"/>
    </contour>
  </outline>
</glyph>
<glyph name="cedilla" format="1">
  <advance width="529.0"/>
  <unicode hex="00B8"/>
  <outline>
    <contour>
      <point x="219.41" y="-419.52" type="curve" smooth="yes"/>
      <point x="154.66" y="-419.52"/>
      <point x="45.78" y="-394.28"/>
      <point x="30.85" y="-389.28" type="curve"/>
      <point x="44.54" y="-279.82" type="line"/>
      <point x="61.92" y="-286.89"/>
      <point x="153.34" y="-308.89"/>
      <point x="213.86" y="-308.89" type="curve" smooth="yes"/>
      <point x="284.44" y="-308.89"/>
      <point x="313.82" y="-272.68"/>
      <point x="313.82" y="-238.65" type="curve" smooth="yes"/>
      <point x="313.82" y="-203.93"/>
      <point x="285.55" y="-157.75"/>
      <point x="158.79" y="-157.75" type="curve"/>
      <point x="131.82" y="-157.75" type="line"/>
      <point x="163.44" y="26.66" type="line"/>
      <point x="272.52" y="26.66" type="line"/>
      <point x="254.21" y="-85.61" type="line"/>
      <point x="410.88" y="-101.75"/>
      <point x="491.46" y="-160.97"/>
      <point x="491.46" y="-243.96" type="curve" smooth="yes"/>
      <point x="491.46" y="-338.54"/>
      <point x="403.71" y="-419.52"/>
    </contour>
  </outline>
</glyph>
<glyph name="ordmasculine" format="1">
  <advance width="898.39"/>
  <unicode hex="00BA"/>
  <outline>
    <contour>
      <point x="450.97" y="877.1" type="curve" smooth="yes"/>
      <point x="573.24" y="877.1"/>
      <point x="652.1" y="961.89"/>
      <point x="652.1" y="1092.16" type="curve" smooth="yes"/>
      <point x="652.1" y="1230.12"/>
      <point x="573.24" y="1312.53"/>
      <point x="450.73" y="1312.53" type="curve" smooth="yes"/>
      <point x="330.15" y="1312.53"/>
      <point x="248.22" y="1227.74"/>
      <point x="248.22" y="1095.47" type="curve" smooth="yes"/>
      <point x="248.22" y="959.2"/>
      <point x="322.77" y="877.1"/>
    </contour>
    <contour>
      <point x="452.73" y="734.57" type="curve" smooth="yes"/>
      <point x="204.07" y="734.57"/>
      <point x="75.24" y="891.95"/>
      <point x="75.24" y="1097.78" type="curve" smooth="yes"/>
      <point x="75.24" y="1298.23"/>
      <point x="212.45" y="1455.99"/>
      <point x="450.35" y="1455.99" type="curve" smooth="yes"/>
      <point x="690.56" y="1455.99"/>
      <point x="823.15" y="1295.16"/>
      <point x="823.15" y="1094.09" type="curve" smooth="yes"/>
      <point x="823.15" y="897.33"/>
      <point x="691.32" y="734.57"/>
    </contour>
  </outline>
</glyph>
<glyph name="ae" format="1">
  <advance width="1784.27"/>
  <unicode hex="00E6"/>
  <outline>
    <contour>
      <point x="463.94" y="-24.55" type="curve" smooth="yes"/>
      <point x="639.33" y="-24.55"/>
      <point x="793.96" y="67.23"/>
      <point x="867.27" y="210.75" type="curve"/>
      <point x="939.48" y="68.37"/>
      <point x="1080.65" y="-20.52"/>
      <point x="1255.45" y="-22.69" type="curve" smooth="yes"/>
      <point x="1501.26" y="-26.41"/>
      <point x="1651.1" y="104.83"/>
      <point x="1651.1" y="104.83" type="curve"/>
      <point x="1590.13" y="261.02" type="line"/>
      <point x="1590.13" y="261.02"/>
      <point x="1447.47" y="144.75"/>
      <point x="1261.83" y="150.95" type="curve" smooth="yes"/>
      <point x="1078.5" y="157.15"/>
      <point x="985.56" y="263.61"/>
      <point x="974.52" y="454.03" type="curve"/>
      <point x="974.52" y="477.51" type="line"/>
      <point x="1672.16" y="477.51" type="line"/>
      <point x="1672.16" y="477.51"/>
      <point x="1675.61" y="506.06"/>
      <point x="1675.61" y="521.24" type="curve" smooth="yes"/>
      <point x="1675.61" y="824.92"/>
      <point x="1528.72" y="1056.03"/>
      <point x="1227.75" y="1052.31" type="curve" smooth="yes"/>
      <point x="1080.68" y="1050.45"/>
      <point x="965.24" y="978.49"/>
      <point x="889.03" y="863.95" type="curve"/>
      <point x="830.68" y="992.25"/>
      <point x="678.06" y="1052.31"/>
      <point x="559.66" y="1052.31" type="curve" smooth="yes"/>
      <point x="334.0" y="1052.31"/>
      <point x="180.05" y="964.97"/>
      <point x="151.45" y="947.72" type="curve"/>
      <point x="213.87" y="800.88" type="line"/>
      <point x="296.67" y="840.21"/>
      <point x="418.47" y="882.5"/>
      <point x="522.75" y="882.5" type="curve" smooth="yes"/>
      <point x="680.26" y="882.5"/>
      <point x="762.43" y="776.75"/>
      <point x="763.12" y="626.25" type="curve"/>
      <point x="726.91" y="626.25" type="line" smooth="yes"/>
      <point x="327.27" y="626.25"/>
      <point x="76.17" y="575.37"/>
      <point x="76.17" y="288.9" type="curve" smooth="yes"/>
      <point x="76.17" y="89.31"/>
      <point x="234.31" y="-24.55"/>
    </contour>
    <contour>
      <point x="479.52" y="149.02" type="curve" smooth="yes"/>
      <point x="377.39" y="149.02"/>
      <point x="287.26" y="190.05"/>
      <point x="287.26" y="298.28" type="curve" smooth="yes"/>
      <point x="287.26" y="437.82"/>
      <point x="458.08" y="477.51"/>
      <point x="635.45" y="477.51" type="curve" smooth="yes"/>
      <point x="763.74" y="477.51" type="line"/>
      <point x="761.67" y="317.7"/>
      <point x="686.3" y="149.02"/>
    </contour>
    <contour>
      <point x="977.21" y="622.8" type="line"/>
      <point x="1002.25" y="765.55"/>
      <point x="1085.9" y="883.88"/>
      <point x="1241.61" y="883.88" type="curve" smooth="yes"/>
      <point x="1372.31" y="883.88"/>
      <point x="1468.28" y="790.79"/>
      <point x="1486.21" y="634.28" type="curve" smooth="yes"/>
      <point x="1487.52" y="622.8" type="line"/>
    </contour>
  </outline>
</glyph>
<glyph name="eth" format="1">
  <advance width="1220.17"/>
  <unicode hex="00F0"/>
  <outline>
    <contour>
      <point x="589.34" y="-23.69" type="curve" smooth="yes"/>
      <point x="913.96" y="-23.69"/>
      <point x="1104.79" y="196.04"/>
      <point x="1104.79" y="625.79" type="curve" smooth="yes"/>
      <point x="1104.79" y="1177.75821"/>
      <point x="652.88" y="1420.64"/>
      <point x="357.56" y="1478.94" type="curve"/>
      <point x="279.25" y="1337.72" type="line"/>
      <point x="668.20519" y="1249.4627"/>
      <point x="875.28" y="1005.85"/>
      <point x="892.53" y="785.44" type="curve" smooth="yes"/>
      <point x="896.67" y="768.88"/>
      <point x="899.43" y="751.29"/>
      <point x="899.43" y="740.94" type="curve"/>
      <point x="820.31" y="841.33"/>
      <point x="706.89" y="901.83"/>
      <point x="561.57" y="901.83" type="curve" smooth="yes"/>
      <point x="283.26" y="901.83"/>
      <point x="101.86" y="724.49"/>
      <point x="101.86" y="461.18" type="curve" smooth="yes"/>
      <point x="101.86" y="196.87"/>
      <point x="289.41" y="-23.69"/>
    </contour>
    <contour>
      <point x="597.9" y="152.5" type="curve" smooth="yes"/>
      <point x="450.54" y="152.5"/>
      <point x="324.09" y="259.38"/>
      <point x="324.09" y="447.9" type="curve" smooth="yes"/>
      <point x="324.09" y="625.52"/>
      <point x="443.09" y="721.81"/>
      <point x="592.34" y="721.81" type="curve" smooth="yes"/>
      <point x="730.26" y="721.81"/>
      <point x="872.7" y="620.3"/>
      <point x="872.7" y="458.68" type="curve" smooth="yes"/>
      <point x="872.7" y="272.13"/>
      <point x="757.55" y="152.5"/>
    </contour>
    <contour>
      <point x="452.52" y="1029.49" type="line"/>
      <point x="1011.44" y="1364.72" type="line"/>
      <point x="943.2" y="1479.32" type="line"/>
      <point x="384.28" y="1144.4" type="line"/>
    </contour>
  </outline>
</glyph>
<glyph name="divide" format="1">
  <advance width="1383.6"/>
  <unicode hex="00F7"/>
  <outline>
    <contour>
      <point x="541.57" y="-2.46" type="line"/>
      <point x="541.57" y="244.11" type="line"/>
      <point x="806.87" y="244.11" type="line"/>
      <point x="807.56" y="-2.46" type="line"/>
    </contour>
    <contour>
      <point x="159.8" y="463.61" type="line"/>
      <point x="159.8" y="642.63" type="line"/>
      <point x="1180.33" y="642.63" type="line"/>
      <point x="1180.33" y="463.61" type="line"/>
    </contour>
    <contour>
      <point x="539.5" y="853.68" type="line"/>
      <point x="539.5" y="1099.56" type="line"/>
      <point x="804.8" y="1099.56" type="line"/>
      <point x="804.8" y="853.68" type="line"/>
    </contour>
  </outline>
</glyph>
<glyph name="oslash" format="1">
  <advance width="1261.8"/>
  <unicode hex="00F8"/>
  <outline>
    <contour>
      <point x="353.24" y="-209.31" type="line"/>
      <point x="255.17" y="-166.79" type="line"/>
      <point x="889.86" y="1216.71" type="line"/>
      <point x="988.55" y="1173.57" type="line"/>
    </contour>
    <component base="o"/>
  </outline>
</glyph>
<glyph name="thorn" format="1">
  <advance width="1232.79"/>
  <unicode hex="00FE"/>
  <outline>
    <contour>
      <point x="147.65" y="-408.37" type="line"/>
      <point x="147.65" y="1460.83" type="line"/>
      <point x="356.05" y="1460.83" type="line"/>
      <point x="354.67" y="916.5" type="line"/>
      <point x="421.11" y="1001.97"/>
      <point x="550.01" y="1051.0"/>
      <point x="656.27" y="1051.0" type="curve" smooth="yes"/>
      <point x="975.51" y="1051.0"/>
      <point x="1132.79" y="809.24"/>
      <point x="1132.79" y="525.62" type="curve" smooth="yes"/>
      <point x="1132.79" y="239.69"/>
      <point x="975.41" y="-23.0"/>
      <point x="655.58" y="-23.0" type="curve" smooth="yes"/>
      <point x="537.11" y="-23.0"/>
      <point x="425.94" y="22.03"/>
      <point x="352.67" y="96.36" type="curve"/>
      <point x="351.98" y="-408.37" type="line"/>
    </contour>
    <contour>
      <point x="628.82" y="149.02" type="curve" smooth="yes"/>
      <point x="824.53" y="149.02"/>
      <point x="907.11" y="325.39"/>
      <point x="907.11" y="521.0" type="curve" smooth="yes"/>
      <point x="907.11" y="704.99"/>
      <point x="840.15" y="876.98"/>
      <point x="636.2" y="876.98" type="curve" smooth="yes"/>
      <point x="424.32" y="876.98"/>
      <point x="352.67" y="694.3"/>
      <point x="352.67" y="494.0" type="curve" smooth="yes"/>
      <point x="352.67" y="295.77"/>
      <point x="447.42" y="149.02"/>
    </contour>
  </outline>
</glyph>
<glyph name="kgreenlandic" format="1">
  <advance width="1082.0"/>
  <unicode hex="0138"/>
  <outline>
    <contour>
      <point x="158.68" y="0.0" type="line"/>
      <point x="158.68" y="1026.0" type="line"/>
      <point x="371.98" y="1026.0" type="line"/>
      <point x="371.98" y="599.09" type="line"/>
      <point x="772.43" y="1026.0" type="line"/>
      <point x="1063.67" y="1026.0" type="line"/>
      <point x="544.71" y="509.93" type="line"/>
      <point x="826.24" y="251.61"/>
      <point x="798.06" y="274.19"/>
      <point x="1099.6" y="0.0" type="curve"/>
      <point x="815.74" y="0.0" type="line"/>
      <point x="371.98" y="421.32" type="line"/>
      <point x="371.98" y="0.0" type="line"/>
    </contour>
  </outline>
</glyph>
<glyph name="lslash" format="1">
  <advance width="503.0"/>
  <unicode hex="0142"/>
  <outline>
    <contour>
      <point x="138.33" y="0.0" type="line"/>
      <point x="138.33" y="711.08" type="line"/>
      <point x="4.14" y="611.08" type="line"/>
      <point x="4.14" y="796.38" type="line"/>
      <point x="137.64" y="896.38" type="line"/>
      <point x="137.64" y="1471.99" type="line"/>
      <point x="352.32" y="1471.99" type="line"/>
      <point x="352.32" y="1045.75" type="line"/>
      <point x="482.61" y="1143.99" type="line"/>
      <point x="482.61" y="956.93" type="line"/>
      <point x="353.01" y="856.31" type="line"/>
      <point x="353.01" y="0.0" type="line"/>
    </contour>
  </outline>
</glyph>
<glyph name="OE" format="1">
  <advance width="2052.21"/>
  <unicode hex="0152"/>
  <outline>
    <contour>
      <point x="811.04" y="-23.69" type="curve" smooth="yes"/>
      <point x="402.61" y="-35.69"/>
      <point x="106.62" y="228.91"/>
      <point x="106.62" y="730.38" type="curve" smooth="yes"/>
      <point x="106.62" y="1185.32"/>
      <point x="395.56" y="1477.13"/>
      <point x="784.12" y="1482.31" type="curve" smooth="yes"/>
      <point x="992.74" y="1486.9"/>
      <point x="1088.83" y="1409.26"/>
      <point x="1107.74" y="1391.35" type="curve"/>
      <point x="1107.74" y="1456.0" type="line"/>
      <point x="1930.06" y="1456.0" type="line"/>
      <point x="1930.06" y="1267.29" type="line"/>
      <point x="1328.04" y="1267.29" type="line"/>
      <point x="1328.04" y="840.01" type="line"/>
      <point x="1892.75" y="840.01" type="line"/>
      <point x="1892.75" y="650.61" type="line"/>
      <point x="1329.42" y="650.61" type="line"/>
      <point x="1329.42" y="188.71" type="line"/>
      <point x="1959.37" y="188.71" type="line"/>
      <point x="1959.37" y="0.0" type="line"/>
      <point x="1107.74" y="0.0" type="line"/>
      <point x="1107.74" y="80.16" type="line"/>
      <point x="1085.39" y="55.98"/>
      <point x="979.98" y="-19.0"/>
    </contour>
    <contour>
      <point x="816.9" y="153.98" type="curve" smooth="yes"/>
      <point x="1003.02" y="155.22"/>
      <point x="1084.11" y="230.68"/>
      <point x="1107.74" y="256.72" type="curve"/>
      <point x="1107.74" y="1202.44" type="line"/>
      <point x="1056.02" y="1250.26"/>
      <point x="959.82" y="1303.26"/>
      <point x="793.68" y="1293.6" type="curve" smooth="yes"/>
      <point x="534.69" y="1281.18"/>
      <point x="343.75" y="1083.19"/>
      <point x="343.75" y="725.0" type="curve" smooth="yes"/>
      <point x="343.75" y="373.44"/>
      <point x="518.96" y="151.19"/>
    </contour>
  </outline>
</glyph>
<glyph name="oe" format="1">
  <advance width="1989.32"/>
  <unicode hex="0153"/>
  <outline>
    <contour>
      <point x="1129.91" y="627.63" type="curve"/>
      <point x="1658.66" y="627.63" type="line"/>
      <point x="1658.66" y="630.73"/>
      <point x="1658.66" y="635.21"/>
      <point x="1658.35" y="638.31" type="curve" smooth="yes"/>
      <point x="1641.35" y="775.82"/>
      <point x="1543.56" y="878.67"/>
      <point x="1402.99" y="878.67" type="curve" smooth="yes"/>
      <point x="1254.18" y="878.67"/>
      <point x="1151.26" y="758.27"/>
    </contour>
    <contour>
      <point x="633.11" y="150.64" type="curve" smooth="yes"/>
      <point x="827.75" y="150.64"/>
      <point x="913.95" y="319.01"/>
      <point x="913.95" y="511.0" type="curve" smooth="yes"/>
      <point x="913.95" y="718.92"/>
      <point x="829.51" y="878.67"/>
      <point x="625.8" y="878.67" type="curve" smooth="yes"/>
      <point x="427.4" y="878.67"/>
      <point x="321.51" y="715.92"/>
      <point x="321.2" y="507.69" type="curve" smooth="yes"/>
      <point x="320.89" y="312.7"/>
      <point x="417.47" y="150.64"/>
    </contour>
    <contour>
      <point x="628.87" y="-22.0" type="curve" smooth="yes"/>
      <point x="291.63" y="-22.0"/>
      <point x="97.52" y="205.79"/>
      <point x="97.52" y="510.38" type="curve" smooth="yes"/>
      <point x="97.52" y="812.21"/>
      <point x="283.04" y="1052.0"/>
      <point x="626.9" y="1052.0" type="curve" smooth="yes"/>
      <point x="818.76" y="1052.0"/>
      <point x="947.69" y="966.66"/>
      <point x="1022.86" y="845.02" type="curve"/>
      <point x="1100.0" y="975.94"/>
      <point x="1215.44" y="1054.07"/>
      <point x="1402.58" y="1054.07" type="curve" smooth="yes"/>
      <point x="1696.58" y="1054.07"/>
      <point x="1860.86" y="834.31"/>
      <point x="1860.86" y="512.99" type="curve" smooth="yes"/>
      <point x="1860.86" y="456.81" type="line"/>
      <point x="1128.53" y="456.81" type="line"/>
      <point x="1129.22" y="451.98"/>
      <point x="1129.22" y="430.68"/>
      <point x="1129.91" y="426.54" type="curve"/>
      <point x="1146.26" y="261.21"/>
      <point x="1264.42" y="150.64"/>
      <point x="1455.45" y="150.64" type="curve" smooth="yes"/>
      <point x="1650.33" y="150.64"/>
      <point x="1774.38" y="257.47"/>
      <point x="1774.38" y="257.47" type="curve"/>
      <point x="1836.35" y="100.35" type="line"/>
      <point x="1836.35" y="100.35"/>
      <point x="1698.61" y="-22.0"/>
      <point x="1432.17" y="-22.0" type="curve" smooth="yes"/>
      <point x="1264.28" y="-22.0"/>
      <point x="1093.21" y="60.2"/>
      <point x="1022.0" y="189.84" type="curve"/>
      <point x="956.0" y="59.72"/>
      <point x="796.55" y="-22.0"/>
    </contour>
  </outline>
</glyph>
<glyph name="Tbar" format="1">
  <advance width="1161.29"/>
  <unicode hex="0166"/>
  <outline>
    <contour>
      <point x="223.36" y="624.18" type="line"/>
      <point x="223.36" y="784.64" type="line"/>
      <point x="919.48" y="784.64" type="line"/>
      <point x="919.48" y="624.18" type="line"/>
    </contour>
    <component base="T"/>
  </outline>
</glyph>
<glyph name="dotlessj" format="1">
  <advance width="503.0"/>
  <unicode hex="0237"/>
  <outline>
    <contour>
      <point x="23.76" y="-409.75" type="curve" smooth="yes"/>
      <point x="-16.69" y="-409.75"/>
      <point x="-64.59" y="-404.99"/>
      <point x="-123.77" y="-393.23" type="curve"/>
      <point x="-124.08" y="-210.9" type="line"/>
      <point x="-67.38" y="-223.42"/>
      <point x="-36.93" y="-227.11"/>
      <point x="-17.31" y="-227.11" type="curve" smooth="yes"/>
      <point x="82.33" y="-227.11"/>
      <point x="142.57" y="-139.77"/>
      <point x="142.57" y="52.39" type="curve" smooth="yes"/>
      <point x="142.57" y="1026.0" type="line"/>
      <point x="355.87" y="1026.0" type="line"/>
      <point x="355.87" y="99.1" type="line" smooth="yes"/>
      <point x="355.87" y="-128.07"/>
      <point x="319.59" y="-409.75"/>
    </contour>
  </outline>
</glyph>
<glyph name="ring" format="1">
  <advance width="660.89"/>
  <unicode hex="02DA"/>
  <outline>
    <contour>
      <point x="330.29" y="1382.82" type="curve" smooth="yes"/>
      <point x="389.29" y="1382.82"/>
      <point x="437.29" y="1334.2"/>
      <point x="437.29" y="1274.2" type="curve" smooth="yes"/>
      <point x="437.29" y="1213.89"/>
      <point x="389.29" y="1164.58"/>
      <point x="330.29" y="1164.58" type="curve" smooth="yes"/>
      <point x="271.98" y="1164.58"/>
      <point x="223.98" y="1213.89"/>
      <point x="223.98" y="1274.2" type="curve" smooth="yes"/>
      <point x="223.98" y="1334.2"/>
      <point x="271.98" y="1382.82"/>
    </contour>
    <contour>
      <point x="330.91" y="1478.0" type="curve" smooth="yes"/>
      <point x="214.63" y="1478.0"/>
      <point x="120.73" y="1392.48"/>
      <point x="120.73" y="1274.2" type="curve" smooth="yes"/>
      <point x="120.73" y="1156.3"/>
      <point x="214.63" y="1070.09"/>
      <point x="330.91" y="1070.09" type="curve" smooth="yes"/>
      <point x="446.19" y="1070.09"/>
      <point x="540.78" y="1156.3"/>
      <point x="540.78" y="1274.2" type="curve" smooth="yes"/>
      <point x="540.78" y="1392.48"/>
      <point x="446.19" y="1478.0"/>
    </contour>
  </outline>
</glyph>
<glyph name="ogonek" format="1">
  <advance width="508.0"/>
  <unicode hex="02DB"/>
  <outline>
    <contour>
      <point x="250.82" y="-378.96" type="curve" smooth="yes"/>
      <point x="126.06" y="-378.96"/>
      <point x="32.82" y="-331.69"/>
      <point x="32.82" y="-231.9" type="curve" smooth="yes"/>
      <point x="32.82" y="-102.99"/>
      <point x="176.08" y="-26.82"/>
      <point x="265.07" y="17.52" type="curve"/>
      <point x="393.38" y="13.8" type="line"/>
      <point x="292.25" y="-46.16"/>
      <point x="224.19" y="-124.96"/>
      <point x="224.19" y="-182.44" type="curve" smooth="yes"/>
      <point x="224.19" y="-226.92"/>
      <point x="263.77" y="-245.81"/>
      <point x="307.63" y="-245.81" type="curve" smooth="yes"/>
      <point x="367.94" y="-245.81"/>
      <point x="433.54" y="-224.77"/>
      <point x="469.91" y="-212.74" type="curve"/>
      <point x="469.91" y="-343.06" type="line"/>
      <point x="400.93" y="-365.27"/>
      <point x="319.1" y="-378.96"/>
    </contour>
  </outline>
</glyph>
<glyph name="tilde" format="1">
  <advance width="699.89"/>
  <unicode hex="02DC"/>
  <outline>
    <contour>
      <point x="3.1" y="1160.64" type="line"/>
      <point x="3.1" y="1316.1"/>
      <point x="80.97" y="1423.35"/>
      <point x="202.63" y="1423.35" type="curve" smooth="yes"/>
      <point x="310.81" y="1423.35"/>
      <point x="423.05" y="1324.97"/>
      <point x="487.63" y="1320.83" type="curve" smooth="yes"/>
      <point x="529.87" y="1318.07"/>
      <point x="553.88" y="1338.13"/>
      <point x="556.36" y="1423.35" type="curve"/>
      <point x="696.79" y="1423.35" type="line"/>
      <point x="696.79" y="1249.26"/>
      <point x="621.71" y="1152.85"/>
      <point x="494.98" y="1155.64" type="curve" smooth="yes"/>
      <point x="404.94" y="1157.5"/>
      <point x="278.11" y="1259.16"/>
      <point x="211.39" y="1259.16" type="curve" smooth="yes"/>
      <point x="174.95" y="1259.16"/>
      <point x="147.22" y="1229.37"/>
      <point x="140.22" y="1160.64" type="curve"/>
    </contour>
  </outline>
</glyph>
<glyph name="pi" format="1">
  <advance width="1288.0"/>
  <unicode hex="03C0"/>
  <outline>
    <contour>
      <point x="1055.34" y="-14.9" type="curve" smooth="yes"/>
      <point x="900.58" y="-14.9"/>
      <point x="812.7" y="65.79"/>
      <point x="812.7" y="270.86" type="curve" smooth="yes"/>
      <point x="812.7" y="865.71" type="line"/>
      <point x="516.27" y="865.71" type="line"/>
      <point x="516.27" y="865.71"/>
      <point x="486.63" y="151.95"/>
      <point x="390.53" y="0.0" type="curve"/>
      <point x="175.92" y="0.0" type="line"/>
      <point x="278.71" y="167.08"/>
      <point x="308.15" y="559.52"/>
      <point x="321.18" y="865.71" type="curve"/>
      <point x="202.11" y="862.71"/>
      <point x="114.53" y="837.12"/>
      <point x="68.75" y="805.02" type="curve"/>
      <point x="51.75" y="963.0" type="line"/>
      <point x="97.43" y="1001.2"/>
      <point x="195.29" y="1026.0"/>
      <point x="345.07" y="1026.0" type="curve" smooth="yes"/>
      <point x="1214.0" y="1026.0" type="line"/>
      <point x="1214.0" y="865.71" type="line"/>
      <point x="1011.55" y="865.71" type="line"/>
      <point x="1011.55" y="299.26" type="line" smooth="yes"/>
      <point x="1011.55" y="239.57"/>
      <point x="1012.55" y="155.43"/>
      <point x="1108.93" y="155.43" type="curve" smooth="yes"/>
      <point x="1129.62" y="155.43"/>
      <point x="1156.62" y="159.43"/>
      <point x="1188.31" y="168.43" type="curve"/>
      <point x="1187.31" y="148.43"/>
      <point x="1185.31" y="107.73"/>
      <point x="1185.31" y="88.04" type="curve" smooth="yes"/>
      <point x="1185.31" y="57.04"/>
      <point x="1188.31" y="30.79"/>
      <point x="1198.0" y="-0.9" type="curve"/>
      <point x="1146.62" y="-9.9"/>
      <point x="1094.03" y="-14.9"/>
    </contour>
  </outline>
</glyph>
<glyph name="uni2015" format="1">
  <advance width="4096.0"/>
  <unicode hex="2015"/>
  <outline>
    <contour>
      <point x="58.48" y="467.61" type="line"/>
      <point x="58.48" y="634.97" type="line"/>
      <point x="4037.52" y="634.97" type="line"/>
      <point x="4037.52" y="467.61" type="line"/>
    </contour>
  </outline>
</glyph>
<glyph name="quoteleft" format="1">
  <advance width="542.3"/>
  <unicode hex="2018"/>
  <outline>
    <contour>
      <point x="425.2" y="874.2" type="line"/>
      <point x="285.74" y="874.2" type="line"/>
      <point x="126.08" y="1456.0" type="line"/>
      <point x="380.24" y="1456.0" type="line"/>
    </contour>
  </outline>
</glyph>
<glyph name="quotedblright" format="1">
  <advance width="1024.0"/>
  <unicode hex="201D"/>
  <outline>
    <contour>
      <point x="189.37" y="874.2" type="line"/>
      <point x="296.82" y="1456.0" type="line"/>
      <point x="534.02" y="1456.0" type="line"/>
      <point x="369.5" y="874.2" type="line"/>
    </contour>
    <contour>
      <point x="568.5" y="874.2" type="line"/>
      <point x="678.33" y="1456.0" type="line"/>
      <point x="913.46" y="1456.0" type="line"/>
      <point x="749.8" y="874.2" type="line"/>
    </contour>
  </outline>
</glyph>
<glyph name="daggerdbl" format="1">
  <advance width="1126.31"/>
  <unicode hex="2021"/>
  <outline>
    <contour>
      <point x="474.49" y="-67.6" type="line"/>
      <point x="474.49" y="389.18" type="line"/>
      <point x="133.8" y="389.18" type="line"/>
      <point x="133.8" y="534.82" type="line"/>
      <point x="474.49" y="534.82" type="line"/>
      <point x="474.49" y="913.74" type="line"/>
      <point x="138.42" y="913.74" type="line"/>
      <point x="138.42" y="1065.76" type="line"/>
      <point x="474.49" y="1065.76" type="line"/>
      <point x="474.49" y="1456.0" type="line"/>
      <point x="660.17" y="1456.0" type="line"/>
      <point x="660.17" y="1065.76" type="line"/>
      <point x="992.51" y="1065.76" type="line"/>
      <point x="992.51" y="913.74" type="line"/>
      <point x="660.17" y="913.74" type="line"/>
      <point x="660.17" y="534.82" type="line"/>
      <point x="984.13" y="534.82" type="line"/>
      <point x="984.13" y="389.18" type="line"/>
      <point x="660.48" y="389.18" type="line"/>
      <point x="660.48" y="-67.6" type="line"/>
    </contour>
  </outline>
</glyph>
<glyph name="guilsinglleft" format="1">
  <advance width="703.36"/>
  <unicode hex="2039"/>
  <outline>
    <contour>
      <point x="411.83" y="163.41" type="line"/>
      <point x="138.0" y="541.0" type="line"/>
      <point x="417.52" y="918.83" type="line"/>
      <point x="597.5" y="918.83" type="line"/>
      <point x="354.09" y="540.31" type="line"/>
      <point x="589.5" y="163.41" type="line"/>
    </contour>
  </outline>
</glyph>
<glyph name="uni2206" format="1">
  <advance width="1310.55"/>
  <unicode hex="2206"/>
  <outline>
    <contour>
      <point x="39.31" y="0.0" type="line"/>
      <point x="1267.83" y="0.0" type="line"/>
      <point x="1267.83" y="95.87" type="line"/>
      <point x="750.26" y="1410.37" type="line"/>
      <point x="557.88" y="1410.37" type="line"/>
      <point x="39.31" y="95.87" type="line"/>
    </contour>
    <contour>
      <point x="317.91" y="187.79" type="line"/>
      <point x="383.46" y="374.09"/>
      <point x="582.86" y="883.88"/>
      <point x="648.41" y="1070.87" type="curve"/>
      <point x="718.79" y="880.43"/>
      <point x="914.09" y="376.85"/>
      <point x="984.47" y="187.79" type="curve"/>
    </contour>
  </outline>
</glyph>
<glyph name="radical" format="1">
  <advance width="1314.0"/>
  <unicode hex="221A"/>
  <outline>
    <contour>
      <point x="576.5" y="-146.79" type="line"/>
      <point x="260.37" y="657.57" type="line"/>
      <point x="258.3" y="656.88"/>
      <point x="95.27" y="628.19"/>
      <point x="95.27" y="628.19" type="curve"/>
      <point x="60.78" y="780.21" type="line"/>
      <point x="399.94" y="836.04" type="line"/>
      <point x="646.92" y="172.1" type="line"/>
      <point x="1022.66" y="1571.16" type="line"/>
      <point x="1210.62" y="1571.16" type="line"/>
      <point x="752.9" y="-146.79" type="line"/>
    </contour>
  </outline>
</glyph>
<glyph name="integral" format="1">
  <advance width="781.2"/>
  <unicode hex="222B"/>
  <outline>
    <contour>
      <point x="183.81" y="-313.49" type="curve" smooth="yes"/>
      <point x="85.7" y="-313.49"/>
      <point x="26.42" y="-289.04"/>
      <point x="26.42" y="-289.04" type="curve"/>
      <point x="26.42" y="-125.54" type="line"/>
      <point x="26.42" y="-125.54"/>
      <point x="98.29" y="-141.23"/>
      <point x="155.81" y="-141.23" type="curve" smooth="yes"/>
      <point x="261.45" y="-141.23"/>
      <point x="280.24" y="-75.58"/>
      <point x="280.24" y="45.41" type="curve" smooth="yes"/>
      <point x="280.24" y="1175.16" type="line" smooth="yes"/>
      <point x="280.24" y="1393.92"/>
      <point x="363.49" y="1555.99"/>
      <point x="591.87" y="1555.99" type="curve" smooth="yes"/>
      <point x="682.01" y="1555.99"/>
      <point x="748.16" y="1532.23"/>
      <point x="748.16" y="1532.23" type="curve"/>
      <point x="748.16" y="1363.9" type="line"/>
      <point x="748.16" y="1363.9"/>
      <point x="682.77" y="1383.04"/>
      <point x="626.08" y="1383.04" type="curve" smooth="yes"/>
      <point x="517.68" y="1383.04"/>
      <point x="495.3" y="1318.08"/>
      <point x="495.3" y="1197.09" type="curve" smooth="yes"/>
      <point x="495.3" y="66.65" type="line" smooth="yes"/>
      <point x="495.3" y="-152.11"/>
      <point x="413.57" y="-313.49"/>
    </contour>
  </outline>
</glyph>
<glyph name="lessequal" format="1">
  <advance width="1350.69"/>
  <unicode hex="2264"/>
  <outline>
    <contour>
      <point x="1136.15" y="235.95" type="line"/>
      <point x="150.07" y="705.47" type="line"/>
      <point x="150.07" y="809.65" type="line"/>
      <point x="1140.46" y="1274.6" type="line"/>
      <point x="1140.46" y="1077.13" type="line"/>
      <point x="426.28" y="757.2" type="line"/>
      <point x="1136.15" y="430.04" type="line"/>
    </contour>
    <contour>
      <point x="137.56" y="0.0" type="line"/>
      <point x="137.56" y="159.26" type="line"/>
      <point x="1156.08" y="159.26" type="line"/>
      <point x="1156.08" y="0.0" type="line"/>
    </contour>
  </outline>
</glyph>
<glyph name="fi" format="1">
  <advance width="1257.71"/>
  <unicode hex="FB01"/>
  <outline>
    <contour>
      <point x="255.9" y="0.0" type="line"/>
      <point x="255.9" y="883.81" type="line"/>
      <point x="69.38" y="883.81" type="line"/>
      <point x="69.38" y="1026.0" type="line"/>
      <point x="255.9" y="1026.0" type="line"/>
      <point x="255.9" y="1089.74" type="line" smooth="yes"/>
      <point x="255.9" y="1364.89"/>
      <point x="294.31" y="1486.48"/>
      <point x="667.26" y="1486.48" type="curve" smooth="yes"/>
      <point x="717.4" y="1486.48" type="line"/>
      <point x="711.88" y="1320.53" type="line"/>
      <point x="487.58" y="1320.53"/>
      <point x="468.89" y="1285.47"/>
      <point x="468.89" y="1101.01" type="curve" smooth="yes"/>
      <point x="468.89" y="1026.0" type="line"/>
      <point x="918.9" y="1026.0" type="line"/>
      <point x="918.9" y="883.81" type="line"/>
      <point x="468.89" y="883.81" type="line"/>
      <point x="468.89" y="0.0" type="line"/>
    </contour>
    <component base="i" xOffset="731.81"/>
  </outline>
</glyph>
<glyph name="commaaccent" format="1">
  <advance width="540.0"/>
  <outline>
    <contour>
      <point x="94.02" y="-625.05" type="line"/>
      <point x="204.47" y="-137.21" type="line"/>
      <point x="445.98" y="-137.21" type="line"/>
      <point x="272.63" y="-625.05" type="line"/>
    </contour>
  </outline>
</glyph>
